<svg width="219" height="62" viewBox="0 0 219 62" fill="none" xmlns="http://www.w3.org/2000/svg">
<path d="M78.9 40.175C77.6167 40.175 76.4667 39.9667 75.45 39.55C74.4333 39.1333 73.6167 38.5167 73 37.7C72.4 36.8833 72.0833 35.9 72.05 34.75H76.6C76.6667 35.4 76.8917 35.9 77.275 36.25C77.6583 36.5833 78.1583 36.75 78.775 36.75C79.4083 36.75 79.9083 36.6083 80.275 36.325C80.6417 36.025 80.825 35.6167 80.825 35.1C80.825 34.6667 80.675 34.3083 80.375 34.025C80.0917 33.7417 79.7333 33.5083 79.3 33.325C78.8833 33.1417 78.2833 32.9333 77.5 32.7C76.3667 32.35 75.4417 32 74.725 31.65C74.0083 31.3 73.3917 30.7833 72.875 30.1C72.3583 29.4167 72.1 28.525 72.1 27.425C72.1 25.7917 72.6917 24.5167 73.875 23.6C75.0583 22.6667 76.6 22.2 78.5 22.2C80.4333 22.2 81.9917 22.6667 83.175 23.6C84.3583 24.5167 84.9917 25.8 85.075 27.45H80.45C80.4167 26.8833 80.2083 26.4417 79.825 26.125C79.4417 25.7917 78.95 25.625 78.35 25.625C77.8333 25.625 77.4167 25.7667 77.1 26.05C76.7833 26.3167 76.625 26.7083 76.625 27.225C76.625 27.7917 76.8917 28.2333 77.425 28.55C77.9583 28.8667 78.7917 29.2083 79.925 29.575C81.0583 29.9583 81.975 30.325 82.675 30.675C83.3917 31.025 84.0083 31.5333 84.525 32.2C85.0417 32.8667 85.3 33.725 85.3 34.775C85.3 35.775 85.0417 36.6833 84.525 37.5C84.025 38.3167 83.2917 38.9667 82.325 39.45C81.3583 39.9333 80.2167 40.175 78.9 40.175ZM103.631 40H99.3559L92.2059 29.175V40H87.9309V22.45H92.2059L99.3559 33.325V22.45H103.631V40ZM111.005 25.875V29.425H116.73V32.725H111.005V36.575H117.48V40H106.73V22.45H117.48V25.875H111.005ZM131.18 36.9H124.63L123.58 40H119.105L125.455 22.45H130.405L136.755 40H132.23L131.18 36.9ZM130.08 33.6L127.905 27.175L125.755 33.6H130.08ZM148.863 40L142.963 32.25V40H138.688V22.45H142.963V30.15L148.813 22.45H153.838L147.038 31.05L154.088 40H148.863ZM160.394 25.875V29.425H166.119V32.725H160.394V36.575H166.869V40H156.119V22.45H166.869V25.875H160.394ZM178.595 40L174.945 33.375H173.92V40H169.645V22.45H176.82C178.203 22.45 179.378 22.6917 180.345 23.175C181.328 23.6583 182.061 24.325 182.545 25.175C183.028 26.0083 183.27 26.9417 183.27 27.975C183.27 29.1417 182.936 30.1833 182.27 31.1C181.62 32.0167 180.653 32.6667 179.37 33.05L183.42 40H178.595ZM173.92 30.35H176.57C177.353 30.35 177.936 30.1583 178.32 29.775C178.72 29.3917 178.92 28.85 178.92 28.15C178.92 27.4833 178.72 26.9583 178.32 26.575C177.936 26.1917 177.353 26 176.57 26H173.92V30.35ZM192.303 40.175C191.02 40.175 189.87 39.9667 188.853 39.55C187.837 39.1333 187.02 38.5167 186.403 37.7C185.803 36.8833 185.487 35.9 185.453 34.75H190.003C190.07 35.4 190.295 35.9 190.678 36.25C191.062 36.5833 191.562 36.75 192.178 36.75C192.812 36.75 193.312 36.6083 193.678 36.325C194.045 36.025 194.228 35.6167 194.228 35.1C194.228 34.6667 194.078 34.3083 193.778 34.025C193.495 33.7417 193.137 33.5083 192.703 33.325C192.287 33.1417 191.687 32.9333 190.903 32.7C189.77 32.35 188.845 32 188.128 31.65C187.412 31.3 186.795 30.7833 186.278 30.1C185.762 29.4167 185.503 28.525 185.503 27.425C185.503 25.7917 186.095 24.5167 187.278 23.6C188.462 22.6667 190.003 22.2 191.903 22.2C193.837 22.2 195.395 22.6667 196.578 23.6C197.762 24.5167 198.395 25.8 198.478 27.45H193.853C193.82 26.8833 193.612 26.4417 193.228 26.125C192.845 25.7917 192.353 25.625 191.753 25.625C191.237 25.625 190.82 25.7667 190.503 26.05C190.187 26.3167 190.028 26.7083 190.028 27.225C190.028 27.7917 190.295 28.2333 190.828 28.55C191.362 28.8667 192.195 29.2083 193.328 29.575C194.462 29.9583 195.378 30.325 196.078 30.675C196.795 31.025 197.412 31.5333 197.928 32.2C198.445 32.8667 198.703 33.725 198.703 34.775C198.703 35.775 198.445 36.6833 197.928 37.5C197.428 38.3167 196.695 38.9667 195.728 39.45C194.762 39.9333 193.62 40.175 192.303 40.175Z" fill="black"/>
<g clip-path="url(#clip0_300_391)">
<path d="M26.6229 22.3253L23.8128 17.0486C23.5341 16.5253 23.5821 15.8882 23.936 15.4126L26.837 11.5128C27.4469 10.6929 28.674 10.6877 29.2906 11.5035L32.2376 15.4033C32.4571 15.6939 32.5662 16.0528 32.5451 16.4165C32.3941 19.0209 31.0028 21.4382 28.8234 22.8826C28.0704 23.3817 27.0487 23.1248 26.6229 22.3253Z" fill="black"/>
<path d="M57.1035 30.1915L57.1026 30.1894C54.4593 22.5163 47.6319 20.6377 40.1276 17.9871C38.6054 17.4412 36.9055 16.8341 35.0001 16.1462C33.9155 15.7546 32.7645 15.3366 31.5419 14.8878C30.58 14.5352 29.5434 15.2108 29.4831 16.2391C29.4106 17.4944 28.881 18.6813 28.0224 19.5787C25.1653 22.5667 20.0695 21.2337 19.0953 17.1632C18.7049 15.5338 17.2758 14.396 15.6208 14.396H15.5656C13.5998 14.3961 12 15.9949 12 17.9616V35.3874C12 36.2339 12.6869 36.9208 13.5334 36.9208H56.4667C57.3131 36.9208 58.0001 36.2339 58.0001 35.3874C58 33.4988 57.6375 31.6497 57.1035 30.1915Z" fill="#3797D3"/>
<path d="M58 35.3874C58 36.2338 57.3131 36.9208 56.4666 36.9208H35V16.1461C36.9054 16.8341 38.6053 17.4413 40.1275 17.9871C48.2883 20.8695 54.5016 22.6389 57.1025 30.1894C57.1035 30.1904 57.1034 30.1915 57.1034 30.1915C57.6312 31.6323 58 33.487 58 35.3874Z" fill="black"/>
<path d="M23.867 30.3652H19.9006C19.0538 30.3652 18.3672 29.6787 18.3672 28.8318C18.3672 27.985 19.0537 27.2985 19.9006 27.2985H23.8671C24.7138 27.2985 25.4004 27.985 25.4004 28.8318C25.4004 29.6787 24.7138 30.3652 23.867 30.3652Z" fill="black"/>
<path d="M47.2047 36.9207H42.6313L25.1533 21.1182C26.2553 20.9231 27.2581 20.3784 28.0227 19.5787L47.2047 36.9207Z" fill="black"/>
<path d="M47.2043 36.9208L35 25.8872V30.0215L42.6309 36.9208H47.2043Z" fill="#2F66A3"/>
<path d="M57.9244 33.8541H12V41.5719C12 42.4193 12.6869 43.1052 13.5334 43.1052H56.4667C57.3131 43.1052 58.0001 42.4194 58.0001 41.5719V35.3874C58 34.9112 57.9831 34.4757 57.9244 33.8541Z" fill="black"/>
</g>
<defs>
<clipPath id="clip0_300_391">
<rect width="46" height="46" fill="white" transform="translate(12 4)"/>
</clipPath>
</defs>
</svg>
