<?xml version="1.0" encoding="utf-8"?>
<!-- Generator: Adobe Illustrator 22.1.0, SVG Export Plug-In . SVG Version: 6.00 Build 0)  -->
<svg version="1.1"   id="Layer_1" xmlns="http://www.w3.org/2000/svg" xmlnsXlink="http://www.w3.org/1999/xlink" x="0px" y="0px"
	 viewBox="0 0 800 600" style="enable-background:new 0 0 800 600;" xmlSpace="preserve">
<style type="text/css">
	.st0{fill:none;}
	.st1{fill:#222221;}
	.st2{fill:none;stroke:#222221;stroke-width:0;stroke-linecap:round;stroke-linejoin:round;}
</style>
<title>Artboard 15</title>
<g>
	<path class="st0" d="M537.2,420.8c0-0.4-0.1-0.6-0.4-0.9c-0.3-0.1-0.5-0.4-0.9-0.4c-0.1-0.1-0.6-0.1-1.3,0.2h-0.5h-1.5v2.5h1.5h0.9
		c0.6-0.1,1-0.1,1.3,0c0.3-0.1,0.4-0.4,0.6-0.5C537,421.6,537.2,421.2,537.2,420.8z"/>
	<path class="st0" d="M426.8,440.8c-6.4,0-11.5,5-11.5,11.3c0,6.4,5.3,11.5,11.5,11.5c6.3,0,11.4-5.1,11.5-11.5
		C438.3,445.9,433,440.8,426.8,440.8z"/>
	<path class="st0" d="M471,440.4c-6.3,0-11.4,5-11.4,11.3c0,6.3,5.1,11.3,11.4,11.4c6.3,0,11.4-5.1,11.4-11.4
		C482.5,445.6,477.3,440.4,471,440.4z"/>
	<path class="st0" d="M326,441.1h-0.2c-4.9,0-9.4,3.1-10.8,7.8c-2.3,7.8,3.4,14.8,10.9,14.8c6.1,0,11.3-5,11.3-11.3
		C337.3,446.3,332.3,441.1,326,441.1z"/>
	<path class="st0" d="M369.7,441.1h-1c-3.6,0-7.1,1.9-8.9,5c-5,8.7,1.2,17.8,9.7,17.8c8,0,14.2-8.4,10.1-16.9
		C377.7,443.4,373.8,441.1,369.7,441.1z"/>
	<path class="st0" d="M534.7,414.2c-5,0-9,4-9,8.9c0,5,4,9,9,9c4.9,0,9-4,9-9C543.7,418.2,539.7,414.2,534.7,414.2z M538.3,428.6
		l-1.8-2.7c-0.7-0.9-1.1-1.5-1.3-1.7c0,0-0.1,0-0.1-0.1c-0.3-0.1-0.4-0.3-0.7-0.4c-0.3,0-0.8-0.1-1.3-0.1h-0.4v5h-2.5v-11.3h4.9
		c1.3,0,2.2,0,2.7,0.2c0.5,0.2,1,0.6,1.3,1.1c0.2,0.5,0.5,1.2,0.5,1.8c0,0.7-0.4,1.5-0.9,1.9c-0.5,0.6-1.3,1-2.3,1.1
		c0.5,0.4,0.9,0.6,1.2,1c0.2,0.4,0.7,1.1,1.5,1.9l1.3,2.2H538.3z"/>
	<path class="st1" d="M514.2,447.8c-5.8-0.9-10.8-1.2-10.8-4.3c0-1.2,0.6-2.5,1.8-3.4c1-0.8,3.6-1,5.3-1c1.8,0,3.6,0.9,4.8,2.1
		c0.6,0.9,1.5,2.2,1.7,3.6h9.4c-0.3-3.5-1.7-6.8-4.4-8.8c-2.6-1.9-5.9-4.3-10.6-4.3c-4.4,0-8.8,0.1-11.9,2.5c-3,2.2-5.2,5.8-5.2,9
		c0,1.8-0.1,4,0.5,5.3c0.8,1.3,3,4.1,4.8,5.2c2.5,1.4,8.3,1.9,11.4,2.8c2.6,0.6,5.8,0.8,6.4,3.4c0.4,1.5-0.1,3-1.4,3.9
		c-1.3,0.9-3.4,1.5-5.7,1.5c-2.3,0-4.5-0.6-5.7-2.1c-1-1.3-1.5-2.6-2.3-4.6H493c0.3,4.3,2.6,8.5,5.5,10.8c2.8,2.3,6.7,3.5,11.6,3.5
		c4.9,0,9.2-0.9,12.4-3.1c3.1-2.2,4.8-6.4,4.8-9.9c0-3-0.9-5.3-2.2-7.1C522.5,449.3,517.5,448.4,514.2,447.8z"/>
	<rect x="395.9" y="432.3" class="st1" width="8.8" height="38.9"/>
	<rect x="395.9" y="421" class="st1" width="8.8" height="8.8"/>
	<path class="st2" d="M368.4,432.3C368.4,432.3,368.4,432.3,368.4,432.3"/>
	<path class="st1" d="M368.4,432.3c0.1,0,0.2,0,0.3,0c0.2,0,0.4,0,0.6,0C369.3,432.3,368.5,432.3,368.4,432.3z"/>
	<path class="st1" d="M382.1,437.4h-0.1c-3.6-2.8-8.2-4.8-13.2-5c-8.5,0.2-16.1,5.8-18.4,14.1c-3.5,12.8,6.3,24.8,18.7,24.8
		c0.3,0,0.4,0,0.4,0s9.2-1.6,12.5-4.8l0.1,6.1h8.8V421h-8.8V437.4z M369.4,464c-8.5,0-14.8-9.1-9.7-17.8c1.8-3.2,5.3-5,8.9-5h1
		c4.1,0,8.1,2.2,9.9,6C383.6,455.5,377.4,464,369.4,464z"/>
	<path class="st1" d="M439.8,437c-3.4-2.7-7.9-4.6-12.7-4.7h-0.3c-8.8,0-16.7,5.7-19,14.2c-3.4,12.8,6.3,24.7,18.8,24.7
		c0.1,0,0.4,0,0.5,0c4.8-0.1,9.1-2,12.7-5.4v5.4h8.8V421h-8.8V437z M426.8,463.6c-6.3,0-11.5-5.1-11.5-11.5
		c0-6.3,5.1-11.3,11.5-11.3c6.3,0,11.5,5.1,11.5,11.3C438.2,458.5,433,463.6,426.8,463.6z"/>
	<path class="st1" d="M338.2,432.5v3.3c-1.8-1.9-2.6-2.5-4.7-3.3c-1.9-0.6-4.4-1.3-6.8-1.4c-0.1,0-0.3,0-0.4,0
		c-2.9,0-5.5,0.5-7.9,1.4c-2.3,1-4.4,2.5-6.3,4.5c-1.8,1.8-3.1,4-4.2,6.4c-0.9,2.4-1.4,4.9-1.4,7.6c0,5.8,1.9,10.7,5.8,14.5
		c3.7,3.9,8.4,5.7,14.1,5.8c1.2,0,4.9-0.2,6.5-0.8c2-0.8,3.5-1.4,5.1-2.8v4.8l8.8-0.1l-0.1-40L338.2,432.5z M326,463.7
		c-7.6,0-13.2-7-10.9-14.8c1.4-4.7,5.9-7.8,10.8-7.8h0.2c6.3,0,11.3,5.1,11.3,11.3C337.3,458.7,332.2,463.7,326,463.7z"/>
	<path class="st1" d="M326.7,471.2c-0.1,0-0.1,0-0.2,0c-0.2,0-0.4,0-0.4,0H326.7z"/>
	<path class="st1" d="M482.5,432.6l0.1,3.6c-1.8-1.9-2.6-2.5-4.6-3.3c-1.9-0.6-6.9-0.7-6.9-0.7s-0.2,0-0.3,0c-2.8,0-5.4,0.5-7.8,1.4
		c-2.4,1-4.3,2.5-6.2,4.5c-1.7,1.7-3.1,4-4.1,6.3c-0.9,2.4-1.4,4.8-1.4,7.4c0,5.7,2,10.5,5.7,14.2c3.6,3.7,8.4,5.7,14.1,5.7
		c2.4,0,4.8-0.6,6.8-1.4c2-0.7,3.6-1.4,4.6-2.7v3.5l8.8-0.1v-40h-8.8V432.6z M471,463.1c-6.3-0.1-11.4-5.1-11.4-11.4
		c0-6.3,5.1-11.3,11.4-11.3s11.4,5.1,11.4,11.3C482.5,458,477.3,463.1,471,463.1z"/>
	<path class="st1" d="M534.7,412.1c-0.1,0-0.1-0.1-0.1-0.1c-7.4,0-13.2,7.6-9.8,15.3c1.7,3.9,5.6,6.3,9.8,6.3h0.1
		c5.9-0.1,10.7-4.9,10.7-10.8C545.3,416.9,540.6,412.1,534.7,412.1z M534.7,432.1c-5,0-9-4-9-9c0-4.9,4-8.9,9-8.9c5,0,9,4,9,8.9
		C543.7,428.1,539.6,432.1,534.7,432.1z"/>
	<path class="st1" d="M537.5,424.4c-0.4-0.4-0.7-0.6-1.2-1c1-0.1,1.8-0.5,2.3-1.1c0.5-0.5,0.9-1.2,0.9-1.9c0-0.6-0.2-1.3-0.5-1.8
		c-0.4-0.5-0.8-0.8-1.3-1.1c-0.5-0.2-1.3-0.2-2.7-0.2h-4.9v11.3h2.5v-5h0.4c0.5,0,1.1,0.1,1.3,0.1c0.3,0.1,0.4,0.3,0.7,0.4
		c0,0.1,0.1,0.1,0.1,0.1c0.3,0.1,0.7,0.8,1.3,1.7l1.8,2.7h2l-1.3-2.2C538.3,425.5,537.8,424.8,537.5,424.4z M535,422.3h-0.9h-1.5
		v-2.5h1.5h0.5c0.6-0.3,1.1-0.3,1.3-0.2c0.4,0,0.6,0.3,0.9,0.4c0.3,0.3,0.4,0.5,0.4,0.9s-0.1,0.8-0.3,1c-0.3,0.1-0.4,0.4-0.6,0.5
		C536.1,422.2,535.6,422.2,535,422.3z"/>
	<path class="st1" d="M287.6,341.9l272.9,0.1c7.7-6,15.8-13.4,23-21.3H265C272.3,330.6,278.6,334.4,287.6,341.9z"/>
	<path class="st1" d="M454.1,360.8l-4.6,28.6c31.2-5.8,58.7-14.8,82.6-28.6H454.1z"/>
	<path class="st1" d="M248.5,296.9l352.7-0.1c5.1-7.2,9.9-14.6,13.4-22.6H235C238.3,281.4,243.7,290.5,248.5,296.9z"/>
	<path class="st1" d="M648.3,163.2c-64.5,9.8-114.3,37.3-148.9,86.1l126.1-0.1H625C636.9,223.4,644.3,195.7,648.3,163.2z"/>
	<path class="st1" d="M203.7,162.9c3.4,33.4,10.5,60.2,21.8,86.3l123.2-0.1C316.2,200.2,267.3,174.2,203.7,162.9z"/>
	<path class="st1" d="M474.9,249.1c3.1-66.5-15.2-132.4-50.6-171.1c-34.9,39.8-52.9,106-50.7,171.1H474.9z"/>
	<path class="st1" d="M394.5,360.8h-78c23.3,14.4,50.6,24,81.7,30.5L394.5,360.8z"/>
	<path class="st1" d="M445.1,360.8l-42.9,0.1c6,12.5,13.7,23.1,22.5,33.1C433.3,383.8,439.1,373.2,445.1,360.8z"/>
</g>
</svg>
