<?xml version="1.0" encoding="utf-8"?>
<!-- Generator: Adobe Illustrator 24.0.0, SVG Export Plug-In . SVG Version: 6.00 Build 0)  -->
<svg version="1.1" id="Layer_1" xmlns="http://www.w3.org/2000/svg" xmlns:xlink="http://www.w3.org/1999/xlink" x="0px" y="0px"
	 viewBox="0 0 576 576" style="enable-background:new 0 0 576 576;" xml:space="preserve">
<style type="text/css">
	.st0{fill:none;}
	.st1{fill:#010101;}
</style>
<g>
	<path class="st0" d="M492.9,351.5c0-1-0.7-1.6-2-1.6c-0.5,0-0.8,0.1-0.7,0.4v2.8C492,353.2,492.9,352.7,492.9,351.5z"/>
	<polygon class="st0" points="226.7,323.5 249.2,323.5 238.1,288.3 	"/>
	<path class="st0" d="M491.5,347.9c-3,0-5.5,2.5-5.5,5.5c0,3.1,2.5,5.5,5.5,5.5c2.8,0,5.2-2.2,5.5-4.9c0.1-0.5,0-0.9,0-1.4
		C496.6,349.9,494.3,347.9,491.5,347.9z M495.5,357.1h-1.9l-2.7-3.5l-0.7,0v2.2c-0.1,0.7,0.2,1.1,1,1v0.2h-3.1v-0.2
		c0.8,0.1,1.1-0.3,1-1.2v-4.9c0.1-0.7-0.2-1.1-1-1v-0.2h3.1c1.9,0,2.9,0.7,2.9,2c0,1.1-0.7,1.7-2,1.9l2.3,2.9c0.3,0.4,0.6,0.5,1,0.5
		V357.1z"/>
	<polygon class="st1" points="492.6,242.6 492.6,216.5 183,216.5 146.4,311.2 111.1,216.5 78.4,216.5 131.2,357.3 161.3,357.3 
		205.7,242.6 	"/>
	<path class="st1" d="M498.5,352.6c-0.4-3.6-3.4-6.3-7.1-6.3c-3.9,0-7.1,3.2-7.1,7.1c0,3.9,3.2,7.1,7.1,7.1c3.7,0,6.7-2.8,7.1-6.4
		C498.6,353.6,498.6,353.1,498.5,352.6z M497,354c-0.3,2.8-2.6,4.9-5.5,4.9c-3,0-5.5-2.5-5.5-5.5c0-3,2.5-5.5,5.5-5.5
		c2.8,0,5.1,2.1,5.5,4.7C497,353.1,497,353.5,497,354z"/>
	<path class="st1" d="M494.4,356.3l-2.3-2.9c1.4-0.2,2-0.8,2-1.9c0-1.3-1-1.9-2.9-2h-3.1v0.2c0.7,0,1.1,0.3,1,1v4.9
		c0.1,0.8-0.2,1.2-1,1.2v0.2h3.1v-0.2c-0.8,0-1.1-0.3-1-1v-2.2l0.7,0l2.7,3.5h1.9v-0.2C495.1,356.9,494.7,356.7,494.4,356.3z
		 M490.3,353.2v-2.8c-0.1-0.3,0.2-0.4,0.7-0.4c1.3,0,2,0.5,2,1.6C492.9,352.7,492,353.2,490.3,353.2z"/>
	<path class="st1" d="M225.9,258.9l-38.1,98.4h29.6l5-13H253l5,13h30L250,258.9H225.9z M226.7,323.5l11.3-35.2l11.1,35.2H226.7z"/>
	<polygon class="st1" points="362.2,312.3 327.7,258.9 300.4,258.9 300.4,357.3 327.7,357.3 327.7,303.8 362.2,357.3 387.3,357.3 
		387.3,258.9 362.2,258.9 	"/>
	<path class="st1" d="M477,306.8c-11.1-7.9-28.7-9.7-39-14.4c-5.4-2.5-7.4-5.8-7.4-8.3c-0.1-3.3,2.6-7.8,14.3-7.8
		c9,0,14.6,6.1,15.2,11.7h24.5c-3.1-20.3-16.5-30.7-40.3-31c-13.5,0.4-23.6,3.3-30.3,8.9c-9.5,7.9-13.4,24.4-6.6,35
		c5.1,8,16.1,13.3,32.8,17.5c4,1,16.4,4.9,19.1,7.3c4.8,4.4,2.7,8.9-2.5,11.7c-10.4,5.5-27,4-29.5-9.8h-25.8
		c3.1,20.3,17,31,41.8,32.1c15.4-0.2,26.8-3.5,34.1-10C489.5,338.9,491.4,317,477,306.8z"/>
</g>
</svg>
