<svg id="heart" width="70" xmlns="http://www.w3.org/2000/svg" xmlns:xlink="http://www.w3.org/1999/xlink" viewBox="0 0 128 128" shape-rendering="geometricPrecision" text-rendering="geometricPrecision"><path id="heart-heart" d="M61.16,85.19L39.83,63.86C37.301588,61.331032,35.919842,57.876505,36.006762,54.301454C36.093682,50.726403,37.641675,47.343106,40.29,44.94C45.601866,40.28046,53.630024,40.587884,58.57,45.64L64,51.06L69.43,45.64C74.369976,40.587884,82.398134,40.28046,87.71,44.94C90.358325,47.343106,91.906318,50.726403,91.993238,54.301454C92.080158,57.876505,90.698412,61.331032,88.17,63.86L66.84,85.19C66.088934,85.947251,65.06655,86.373193,64,86.373193C62.93345,86.373193,61.911066,85.947251,61.16,85.19Z" transform="matrix(1 0 0 1 0 -0.638382)" fill="none" fill-opacity="0.5" stroke="rgb(84,131,204)" stroke-width="4" stroke-miterlimit="10"/></svg>